<?xml version="1.0" encoding="utf-8"?>
<!-- Generator: Adobe Illustrator 21.0.2, SVG Export Plug-In . SVG Version: 6.00 Build 0)  -->
<svg version="1.1" id="Layer_1" xmlns="http://www.w3.org/2000/svg" xmlns:xlink="http://www.w3.org/1999/xlink" x="0px" y="0px"
	 viewBox="0 0 100 67" style="enable-background:new 0 0 100 67;" xml:space="preserve" width="100" height="100">
<style type="text/css">
	.st0{fill:#A9A9AA;}
</style>
<g>
	<path class="st0" d="M79.3,48.8c-5.2,0-9.3,4.1-9.3,9.1s4.2,9.1,9.3,9.1s9.3-4.1,9.3-9.1C88.6,52.9,84.5,48.8,79.3,48.8z
		 M79.3,65.9c-4.5,0-8.2-3.6-8.2-8s3.7-8,8.2-8s8.2,3.6,8.2,8S83.8,65.9,79.3,65.9z"/>
	<path class="st0" d="M79.3,53.1c-2.7,0-5,2.2-5,4.8c0,2.7,2.2,4.8,5,4.8s5-2.2,5-4.8S82,53.1,79.3,53.1z M79.3,61.7
		c-2.1,0-3.9-1.7-3.9-3.8s1.7-3.8,3.9-3.8c2.1,0,3.9,1.7,3.9,3.8C83.2,60,81.4,61.7,79.3,61.7z"/>
	<path class="st0" d="M23,53.1c-2.7,0-5,2.2-5,4.8c0,2.7,2.2,4.8,5,4.8s5-2.2,5-4.8C27.9,55.3,25.7,53.1,23,53.1z M23,61.7
		c-2.1,0-3.9-1.7-3.9-3.8s1.7-3.8,3.9-3.8s3.9,1.7,3.9,3.8C26.8,60,25.1,61.7,23,61.7z"/>
	<path class="st0" d="M23,48.8c-5.2,0-9.3,4.1-9.3,9.1S17.9,67,23,67s9.3-4.1,9.3-9.1S28.1,48.8,23,48.8z M23,65.9
		c-4.5,0-8.2-3.6-8.2-8s3.7-8,8.2-8s8.2,3.6,8.2,8S27.5,65.9,23,65.9z"/>
	<path class="st0" d="M80.9,21.1c-1.1-1.5-2.8-2.4-4.7-2.4h-5.7v14L88.3,37c0.1,0,0.3,0,0.4,0c0.5,0,1.1-0.3,1.4-0.7
		c0.4-0.6,0.4-1.3,0-1.9L80.9,21.1z M89.2,35.8c-0.1,0.1-0.3,0.3-0.6,0.2l-17-4.1V19.8h4.6c1.5,0,2.9,0.7,3.8,2l9.2,13.4
		C89.4,35.4,89.3,35.7,89.2,35.8z"/>
	<path class="st0" d="M98.1,35.7L85.9,18c-2.1-3-5.5-4.8-9.2-4.8H63.6V4c0-2.2-1.8-4-4.1-4H4.4C2,0,0,1.9,0,4.3v50.4
		C0,56,1,57,2.3,57h9.2l0.1-0.5c0.7-5.5,5.6-9.7,11.4-9.7s10.6,4.2,11.4,9.7l0.1,0.5h28.1h1.1H68l0.1-0.5c0.7-5.5,5.6-9.7,11.4-9.7
		s10.6,4.2,11.4,9.7L91,57h7.6c0.9,0,1.6-0.7,1.6-1.6V41.7C100,39.6,99.4,37.5,98.1,35.7z M62.5,3.9l-11,10.7l-3.6-3.8l10-9.7h1.6
		C61.1,1.1,62.5,2.3,62.5,3.9z M43.3,20.3H25.7v-6.2h17.5c0.3,0,0.6-0.2,0.6-0.5V8.1l4,4.2l4.7,4.9l-8.7,9.1v-5.5
		C43.8,20.6,43.6,20.3,43.3,20.3z M34.8,26.8h-3.4l5.6-5.4h5.8v1.7l-7.4,7.2v-3C35.3,27.1,35.1,26.8,34.8,26.8z M16.7,34.1
		c-0.3,0-0.6,0.2-0.6,0.5v5.5l-4-4.2L7.4,31l8.7-9.1v5.5c0,0.3,0.2,0.5,0.6,0.5h17.5v6.2H16.7z M22,35.2l-4.8,4.7v-4.7H22z
		 M1.3,55.3c-0.1-0.2-0.2-0.4-0.2-0.6v-6.6l11-10.7l3.6,3.8L1.3,55.3z M16.1,1.1h7.6L1.1,23v-7.4L16.1,1.1z M1.1,14.9V7.5l6.6-6.4
		h7.6L1.1,14.9z M24.4,1.1H32l-30.9,30v-7.4L24.4,1.1z M32.8,1.1h7.6L28,13.1h-2.8c-0.3,0-0.6,0.2-0.6,0.5v2.8l-7.4,7.2v-3.1
		c0-0.2-0.1-0.4-0.3-0.5c-0.2-0.1-0.5,0-0.6,0.1l-10,10.5c-0.2,0.2-0.2,0.5,0,0.7l1.4,1.5l-6.6,6.4v-7.4L32.8,1.1z M43.8,6.6
		l5.6-5.5H57l-9.6,9.3L43.8,6.6z M43.4,6.2c-0.1,0-0.2,0-0.3,0c-0.2,0.1-0.3,0.3-0.3,0.5v0.2l-6.3,6.2h-7.6l12.3-12h7.6L43.4,6.2z
		 M42.7,7.7v5.4h-5.6L42.7,7.7z M23,26.8l5.6-5.4h7.6l-5.6,5.4H23z M22.2,26.8h-5v-2.5l7.4-7.2v3.7c0,0.3,0.2,0.5,0.6,0.5h2.6
		L22.2,26.8z M8,33.2l3.6,3.8L1.1,47.3V40L8,33.2z M4.4,1.1h2.5L1.1,6.8V4.3C1.1,2.5,2.6,1.1,4.4,1.1z M10.6,55.9H2.3
		c-0.3,0-0.5-0.1-0.7-0.2l14.4-14l0.2,0.2c0.1,0.1,0.3,0.2,0.4,0.2s0.1,0,0.2,0c0.2-0.1,0.3-0.3,0.3-0.5v-0.9l5.6-5.4h7.6L18.7,46.4
		C14.5,47.9,11.3,51.5,10.6,55.9z M19.9,46.1l11.3-10.9h3.6c0.3,0,0.6-0.2,0.6-0.5v-3.5l7.4-7.2v3.8c0,0.2,0.1,0.4,0.3,0.5
		c0.1,0,0.1,0,0.2,0c0.2,0,0.3-0.1,0.4-0.2l10-10.5c0.2-0.2,0.2-0.5,0-0.7L51.9,15L62.5,4.7V12L27.1,46.4c-1.3-0.4-2.7-0.7-4.2-0.7
		C21.9,45.7,20.9,45.8,19.9,46.1z M27.7,46.6l34.8-33.8v0.5v6.9L32.2,49.6C30.9,48.3,29.4,47.3,27.7,46.6z M32.5,50l30-29.1v7.4
		L35.1,54.9C34.6,53,33.7,51.4,32.5,50z M35.3,55.5L62.5,29v7.4L42.4,55.9h-7.1C35.3,55.8,35.3,55.6,35.3,55.5z M50.8,55.9h-7.6
		l19.3-18.8v7.4L50.8,55.9z M62.5,45.2v7.4l-3.4,3.3h-7.6L62.5,45.2z M59.9,55.9l2.6-2.5v2.5H59.9z M98.9,55.4
		c0,0.3-0.2,0.5-0.5,0.5h-6.7c-1-5.8-6.2-10.2-12.4-10.2c-6.1,0-11.4,4.4-12.4,10.2h-3.3V14.3h13.1c3.3,0,6.4,1.6,8.3,4.3l12.2,17.7
		c1.1,1.6,1.7,3.5,1.7,5.4V55.4z"/>
</g>
</svg>
